<?xml version="1.0" standalone="no"?>
<!DOCTYPE svg PUBLIC "-//W3C//DTD SVG 20010904//EN"
 "http://www.w3.org/TR/2001/REC-SVG-20010904/DTD/svg10.dtd">
<svg version="1.0" xmlns="http://www.w3.org/2000/svg"
 width="260.000000pt" height="260.000000pt" viewBox="0 0 260.000000 260.000000"
 preserveAspectRatio="xMidYMid meet">
<metadata>
Created by potrace 1.11, written by Peter Selinger 2001-2013
</metadata>
<g transform="translate(0.000000,260.000000) scale(0.100000,-0.100000)"
fill="#000000" stroke="none">
<path d="M2008 1962 c-40 -24 -46 -48 -47 -197 -1 -76 -3 -141 -5 -144 -3 -3
-30 -7 -62 -9 -68 -3 -104 -28 -104 -73 0 -61 24 -80 110 -86 30 -3 56 -5 57
-6 1 -2 3 -117 4 -257 2 -272 8 -318 53 -394 35 -60 79 -102 140 -134 44 -23
63 -27 138 -27 78 0 89 2 112 24 20 19 26 34 26 65 -1 68 -33 94 -118 94 -69
1 -111 25 -139 82 -22 42 -23 55 -23 297 l0 253 73 1 c39 1 77 2 82 4 6 1 20
3 33 3 30 3 60 53 54 91 -7 49 -41 64 -149 64 l-93 1 0 143 c0 108 -4 151 -15
173 -22 43 -84 59 -127 32z"/>
<path d="M505 1644 c-27 -9 -69 -29 -93 -45 -50 -34 -62 -36 -62 -11 0 32 -38
57 -87 57 -37 0 -49 -5 -69 -28 l-24 -28 -1 -382 c-1 -561 -2 -543 48 -566 42
-19 82 -13 113 18 l29 28 0 301 c0 166 3 314 7 329 11 46 51 107 87 131 93 62
232 47 292 -32 40 -53 44 -96 45 -420 l1 -309 29 -28 c46 -47 119 -38 148 18
8 14 12 113 12 312 1 323 7 364 62 426 43 49 98 72 167 70 99 -3 169 -53 192
-138 7 -26 12 -155 13 -347 1 -224 5 -311 14 -327 39 -69 150 -53 170 24 10
35 8 603 -2 662 -19 112 -97 221 -192 266 -137 65 -339 33 -450 -72 l-36 -34
-45 42 c-68 62 -142 92 -238 96 -53 2 -97 -3 -130 -13z"/>
</g>
</svg>
